# MagicaVoxel @ Ephtracy

# group
o 

# material
mtllib Monster.mtl
usemtl palette

# normals
vn -1 0 0
vn 1 0 0
vn 0 0 1
vn 0 0 -1
vn 0 -1 0
vn 0 1 0

# texcoords
vt 0.841797 0.5
vt 0.884766 0.5
vt 0.923828 0.5
vt 0.978516 0.5

# verts
v -0.4 0 0.5
v -0.4 0 -0.5
v -0.4 0.1 0.4
v -0.4 0.1 -0.4
v -0.4 0.2 0.4
v -0.4 0.2 -0.4
v -0.4 0.3 0.5
v -0.4 0.3 -0.5
v -0.2 0.1 0.4
v -0.2 0.1 -0.5
v -0.2 0.2 0.4
v -0.2 0.2 0.1
v -0.2 0.2 -0.3
v -0.2 0.2 -0.5
v -0.2 0.3 0.1
v -0.2 0.3 -0.3
v -0.1 0.2 0.4
v -0.1 0.2 0.1
v -0.1 0.2 -0.3
v -0.1 0.2 -0.5
v -0.1 0.3 0.4
v -0.1 0.3 0.1
v -0.1 0.3 -0.3
v -0.1 0.3 -0.5
v -0.1 0.4 0.1
v -0.1 0.4 -0.3
v 0.1 0 0.5
v 0.1 0 0.4
v 0.1 0.1 0.5
v 0.1 0.1 0.4
v 0.3 0.1 0.5
v 0.3 0.1 0.4
v 0.3 0.1 -0.4
v 0.3 0.1 -0.5
v 0.3 0.2 0.4
v 0.3 0.2 -0.4
v 0.3 0.3 0.5
v 0.3 0.3 -0.5
v -0.3 0.1 0.5
v -0.3 0.1 0.4
v -0.3 0.1 -0.4
v -0.3 0.1 -0.5
v -0.3 0.2 0.4
v -0.3 0.2 -0.4
v -0.3 0.3 0.5
v -0.3 0.3 -0.5
v -0.1 0 0.5
v -0.1 0 0.4
v -0.1 0.1 0.5
v -0.1 0.1 0.4
v 0.1 0.2 0.4
v 0.1 0.2 0.1
v 0.1 0.2 -0.4
v 0.1 0.2 -0.5
v 0.1 0.3 0.4
v 0.1 0.3 0.1
v 0.1 0.3 -0.3
v 0.1 0.3 -0.4
v 0.1 0.3 -0.5
v 0.1 0.4 0.1
v 0.1 0.4 -0.3
v 0.2 0.1 0.4
v 0.2 0.1 -0.5
v 0.2 0.2 0.4
v 0.2 0.2 0.1
v 0.2 0.2 -0.4
v 0.2 0.2 -0.5
v 0.2 0.3 0.1
v 0.2 0.3 -0.4
v 0.4 0 0.5
v 0.4 0 -0.5
v 0.4 0.1 0.4
v 0.4 0.1 -0.4
v 0.4 0.2 0.4
v 0.4 0.2 -0.4
v 0.4 0.3 0.5
v 0.4 0.3 -0.5
v -0.4 0 0.5
v -0.4 0.3 0.5
v -0.3 0 0.5
v -0.3 0.1 0.5
v -0.3 0.3 0.5
v -0.1 0 0.5
v -0.1 0.1 0.5
v 0.1 0 0.5
v 0.1 0.1 0.5
v 0.3 0 0.5
v 0.3 0.1 0.5
v 0.3 0.3 0.5
v 0.4 0 0.5
v 0.4 0.3 0.5
v -0.2 0.1 0.4
v -0.2 0.2 0.4
v -0.1 0 0.4
v -0.1 0.1 0.4
v -0.1 0.2 0.4
v -0.1 0.3 0.4
v 0.1 0 0.4
v 0.1 0.1 0.4
v 0.1 0.2 0.4
v 0.1 0.3 0.4
v 0.2 0.1 0.4
v 0.2 0.2 0.4
v -0.2 0.2 0.1
v -0.2 0.3 0.1
v -0.1 0.2 0.1
v -0.1 0.3 0.1
v -0.1 0.4 0.1
v 0.1 0.2 0.1
v 0.1 0.3 0.1
v 0.1 0.4 0.1
v 0.2 0.2 0.1
v 0.2 0.3 0.1
v -0.4 0.1 -0.4
v -0.4 0.2 -0.4
v -0.3 0.1 -0.4
v -0.3 0.2 -0.4
v 0.3 0.1 -0.4
v 0.3 0.2 -0.4
v 0.4 0.1 -0.4
v 0.4 0.2 -0.4
v -0.4 0.1 0.4
v -0.4 0.2 0.4
v -0.3 0.1 0.4
v -0.3 0.2 0.4
v 0.3 0.1 0.4
v 0.3 0.2 0.4
v 0.4 0.1 0.4
v 0.4 0.2 0.4
v -0.2 0.2 -0.3
v -0.2 0.3 -0.3
v -0.1 0.2 -0.3
v -0.1 0.3 -0.3
v -0.1 0.4 -0.3
v 0.1 0.3 -0.3
v 0.1 0.4 -0.3
v 0.1 0.2 -0.4
v 0.1 0.3 -0.4
v 0.2 0.2 -0.4
v 0.2 0.3 -0.4
v -0.4 0 -0.5
v -0.4 0.3 -0.5
v -0.3 0 -0.5
v -0.3 0.1 -0.5
v -0.3 0.3 -0.5
v -0.2 0.1 -0.5
v -0.2 0.2 -0.5
v -0.1 0.2 -0.5
v -0.1 0.3 -0.5
v 0.1 0.2 -0.5
v 0.1 0.3 -0.5
v 0.2 0.1 -0.5
v 0.2 0.2 -0.5
v 0.3 0 -0.5
v 0.3 0.1 -0.5
v 0.3 0.3 -0.5
v 0.4 0 -0.5
v 0.4 0.3 -0.5
v -0.4 0 0.5
v -0.3 0 0.5
v -0.1 0 0.5
v 0.1 0 0.5
v 0.3 0 0.5
v 0.4 0 0.5
v -0.3 0 0.4
v -0.1 0 0.4
v 0.1 0 0.4
v 0.2 0 0.4
v 0.3 0 0.4
v 0.1 0 0.3
v 0.2 0 0.3
v 0 0 0
v 0.1 0 0
v 0 0 -0.4
v 0.1 0 -0.4
v -0.4 0 -0.5
v -0.3 0 -0.5
v 0.3 0 -0.5
v 0.4 0 -0.5
v -0.4 0.2 0.4
v -0.3 0.2 0.4
v 0.3 0.2 0.4
v 0.4 0.2 0.4
v -0.4 0.2 -0.4
v -0.3 0.2 -0.4
v 0.3 0.2 -0.4
v 0.4 0.2 -0.4
v -0.3 0.1 0.5
v -0.1 0.1 0.5
v 0.1 0.1 0.5
v 0.3 0.1 0.5
v -0.4 0.1 0.4
v -0.3 0.1 0.4
v -0.2 0.1 0.4
v -0.1 0.1 0.4
v 0.1 0.1 0.4
v 0.2 0.1 0.4
v 0.3 0.1 0.4
v 0.4 0.1 0.4
v -0.4 0.1 -0.4
v -0.3 0.1 -0.4
v 0.3 0.1 -0.4
v 0.4 0.1 -0.4
v -0.3 0.1 -0.5
v -0.2 0.1 -0.5
v 0.2 0.1 -0.5
v 0.3 0.1 -0.5
v -0.2 0.2 0.4
v -0.1 0.2 0.4
v 0.1 0.2 0.4
v 0.2 0.2 0.4
v -0.2 0.2 0.1
v -0.1 0.2 0.1
v 0.1 0.2 0.1
v 0.2 0.2 0.1
v -0.2 0.2 -0.3
v -0.1 0.2 -0.3
v 0.1 0.2 -0.4
v 0.2 0.2 -0.4
v -0.2 0.2 -0.5
v -0.1 0.2 -0.5
v 0.1 0.2 -0.5
v 0.2 0.2 -0.5
v -0.4 0.3 0.5
v -0.3 0.3 0.5
v 0.3 0.3 0.5
v 0.4 0.3 0.5
v -0.1 0.3 0.4
v 0.1 0.3 0.4
v -0.2 0.3 0.1
v -0.1 0.3 0.1
v 0.1 0.3 0.1
v 0.2 0.3 0.1
v -0.2 0.3 -0.3
v -0.1 0.3 -0.3
v 0.1 0.3 -0.3
v 0.1 0.3 -0.4
v 0.2 0.3 -0.4
v -0.4 0.3 -0.5
v -0.3 0.3 -0.5
v -0.1 0.3 -0.5
v 0.1 0.3 -0.5
v 0.3 0.3 -0.5
v 0.4 0.3 -0.5
v -0.1 0.4 0.1
v 0.1 0.4 0.1
v -0.1 0.4 -0.3
v 0.1 0.4 -0.3

# faces
f 3/4/1 2/4/1 1/4/1
f 4/4/1 2/4/1 3/4/1
f 5/4/1 3/4/1 1/4/1
f 6/4/1 2/4/1 4/4/1
f 7/4/1 5/4/1 1/4/1
f 7/4/1 6/4/1 5/4/1
f 8/4/1 2/4/1 6/4/1
f 8/4/1 6/4/1 7/4/1
f 11/3/1 10/3/1 9/3/1
f 12/3/1 10/3/1 11/3/1
f 13/3/1 10/3/1 12/3/1
f 14/3/1 10/3/1 13/3/1
f 15/3/1 13/3/1 12/3/1
f 16/3/1 13/3/1 15/3/1
f 21/3/1 18/3/1 17/3/1
f 22/3/1 18/3/1 21/3/1
f 23/3/1 20/3/1 19/3/1
f 24/3/1 20/3/1 23/3/1
f 25/3/1 23/3/1 22/3/1
f 26/3/1 23/3/1 25/3/1
f 29/1/1 28/1/1 27/1/1
f 30/1/1 28/1/1 29/1/1
f 35/4/1 32/4/1 31/4/1
f 36/4/1 34/4/1 33/4/1
f 37/4/1 35/4/1 31/4/1
f 37/4/1 36/4/1 35/4/1
f 38/4/1 34/4/1 36/4/1
f 38/4/1 36/4/1 37/4/1
f 39/4/2 40/4/2 43/4/2
f 41/4/2 42/4/2 44/4/2
f 39/4/2 43/4/2 45/4/2
f 43/4/2 44/4/2 45/4/2
f 44/4/2 42/4/2 46/4/2
f 45/4/2 44/4/2 46/4/2
f 47/1/2 48/1/2 49/1/2
f 49/1/2 48/1/2 50/1/2
f 51/3/2 52/3/2 55/3/2
f 55/3/2 52/3/2 56/3/2
f 53/3/2 54/3/2 58/3/2
f 58/3/2 54/3/2 59/3/2
f 56/3/2 57/3/2 60/3/2
f 60/3/2 57/3/2 61/3/2
f 62/3/2 63/3/2 64/3/2
f 64/3/2 63/3/2 65/3/2
f 65/3/2 63/3/2 66/3/2
f 66/3/2 63/3/2 67/3/2
f 65/3/2 66/3/2 68/3/2
f 68/3/2 66/3/2 69/3/2
f 70/4/2 71/4/2 72/4/2
f 72/4/2 71/4/2 73/4/2
f 70/4/2 72/4/2 74/4/2
f 73/4/2 71/4/2 75/4/2
f 70/4/2 74/4/2 76/4/2
f 74/4/2 75/4/2 76/4/2
f 75/4/2 71/4/2 77/4/2
f 76/4/2 75/4/2 77/4/2
f 80/4/3 79/4/3 78/4/3
f 81/4/3 79/4/3 80/4/3
f 82/4/3 79/4/3 81/4/3
f 83/1/3 81/1/3 80/1/3
f 84/1/3 81/1/3 83/1/3
f 87/1/3 86/1/3 85/1/3
f 88/1/3 86/1/3 87/1/3
f 90/4/3 88/4/3 87/4/3
f 90/4/3 89/4/3 88/4/3
f 91/4/3 89/4/3 90/4/3
f 95/3/3 93/3/3 92/3/3
f 96/3/3 93/3/3 95/3/3
f 98/3/3 95/3/3 94/3/3
f 98/3/3 97/3/3 96/3/3
f 98/3/3 96/3/3 95/3/3
f 99/3/3 97/3/3 98/3/3
f 100/3/3 97/3/3 99/3/3
f 101/3/3 97/3/3 100/3/3
f 102/3/3 100/3/3 99/3/3
f 103/3/3 100/3/3 102/3/3
f 106/3/3 105/3/3 104/3/3
f 107/3/3 105/3/3 106/3/3
f 110/3/3 108/3/3 107/3/3
f 111/3/3 108/3/3 110/3/3
f 112/3/3 110/3/3 109/3/3
f 113/3/3 110/3/3 112/3/3
f 116/4/3 115/4/3 114/4/3
f 117/4/3 115/4/3 116/4/3
f 120/4/3 119/4/3 118/4/3
f 121/4/3 119/4/3 120/4/3
f 122/4/4 123/4/4 124/4/4
f 124/4/4 123/4/4 125/4/4
f 126/4/4 127/4/4 128/4/4
f 128/4/4 127/4/4 129/4/4
f 130/3/4 131/3/4 132/3/4
f 132/3/4 131/3/4 133/3/4
f 133/3/4 134/3/4 135/3/4
f 135/3/4 134/3/4 136/3/4
f 137/3/4 138/3/4 139/3/4
f 139/3/4 138/3/4 140/3/4
f 141/4/4 142/4/4 143/4/4
f 143/4/4 142/4/4 144/4/4
f 144/4/4 142/4/4 145/4/4
f 143/3/4 144/3/4 146/3/4
f 146/3/4 147/3/4 148/3/4
f 146/3/4 148/3/4 150/3/4
f 148/3/4 149/3/4 150/3/4
f 150/3/4 149/3/4 151/3/4
f 143/3/4 146/3/4 152/3/4
f 146/3/4 150/3/4 152/3/4
f 152/3/4 150/3/4 153/3/4
f 143/3/4 152/3/4 154/3/4
f 154/3/4 152/3/4 155/3/4
f 154/4/4 155/4/4 157/4/4
f 155/4/4 156/4/4 157/4/4
f 157/4/4 156/4/4 158/4/4
f 165/4/5 160/4/5 159/4/5
f 165/1/5 161/1/5 160/1/5
f 166/1/5 161/1/5 165/1/5
f 167/1/5 163/1/5 162/1/5
f 168/1/5 163/1/5 167/1/5
f 169/4/5 164/4/5 163/4/5
f 169/1/5 163/1/5 168/1/5
f 170/2/5 168/2/5 167/2/5
f 170/3/5 166/3/5 165/3/5
f 170/3/5 167/3/5 166/3/5
f 171/3/5 169/3/5 168/3/5
f 171/2/5 168/2/5 170/2/5
f 172/3/5 170/3/5 165/3/5
f 172/3/5 171/3/5 170/3/5
f 173/3/5 171/3/5 172/3/5
f 174/3/5 172/3/5 165/3/5
f 174/2/5 173/2/5 172/2/5
f 175/3/5 171/3/5 173/3/5
f 175/2/5 173/2/5 174/2/5
f 176/4/5 165/4/5 159/4/5
f 177/3/5 174/3/5 165/3/5
f 177/4/5 165/4/5 176/4/5
f 177/3/5 175/3/5 174/3/5
f 178/4/5 164/4/5 169/4/5
f 178/3/5 175/3/5 177/3/5
f 178/3/5 169/3/5 171/3/5
f 178/3/5 171/3/5 175/3/5
f 179/4/5 164/4/5 178/4/5
f 184/4/5 181/4/5 180/4/5
f 185/4/5 181/4/5 184/4/5
f 186/4/5 183/4/5 182/4/5
f 187/4/5 183/4/5 186/4/5
f 188/1/6 189/1/6 193/1/6
f 193/1/6 189/1/6 194/1/6
f 194/1/6 189/1/6 195/1/6
f 190/1/6 191/1/6 196/1/6
f 196/1/6 191/1/6 197/1/6
f 197/1/6 191/1/6 198/1/6
f 192/4/6 193/4/6 200/4/6
f 193/3/6 194/3/6 201/3/6
f 200/4/6 193/4/6 201/4/6
f 198/4/6 199/4/6 202/4/6
f 197/3/6 198/3/6 202/3/6
f 202/4/6 199/4/6 203/4/6
f 201/3/6 194/3/6 204/3/6
f 204/3/6 194/3/6 205/3/6
f 197/3/6 202/3/6 206/3/6
f 206/3/6 202/3/6 207/3/6
f 208/3/6 209/3/6 212/3/6
f 212/3/6 209/3/6 213/3/6
f 210/3/6 211/3/6 214/3/6
f 214/3/6 211/3/6 215/3/6
f 216/3/6 217/3/6 220/3/6
f 220/3/6 217/3/6 221/3/6
f 218/3/6 219/3/6 222/3/6
f 222/3/6 219/3/6 223/3/6
f 228/3/6 229/3/6 231/3/6
f 231/3/6 229/3/6 232/3/6
f 230/3/6 231/3/6 234/3/6
f 234/3/6 231/3/6 235/3/6
f 232/3/6 233/3/6 236/3/6
f 235/3/6 236/3/6 237/3/6
f 236/3/6 233/3/6 237/3/6
f 237/3/6 233/3/6 238/3/6
f 224/4/6 225/4/6 239/4/6
f 239/4/6 225/4/6 240/4/6
f 235/3/6 237/3/6 241/3/6
f 241/3/6 237/3/6 242/3/6
f 226/4/6 227/4/6 243/4/6
f 243/4/6 227/4/6 244/4/6
f 245/3/6 246/3/6 247/3/6
f 247/3/6 246/3/6 248/3/6
